<?xml version="1.0" encoding="iso-8859-1"?>
<!-- Generator: Adobe Illustrator 19.0.0, SVG Export Plug-In . SVG Version: 6.00 Build 0)  -->
<svg version="1.1" id="Layer_1" xmlns="http://www.w3.org/2000/svg" xmlns:xlink="http://www.w3.org/1999/xlink" x="0px" y="0px"
	 viewBox="-10 0 540 540" style="enable-background:new 0 0 512 512;" xml:space="preserve">
<path style="fill:none; stroke: #555; stroke-width: 20px" d="M486.81,44.138c9.257,0,16.939,7.091,17.605,16.324C506.849,94.164,512,175.082,512,256
	c0,14.461,0,41.047,0,70.618c0,46.084-4.62,99.415-7.176,125.387c-0.889,9.035-8.486,15.857-17.565,15.857H24.74
	c-9.079,0-16.676-6.822-17.565-15.857C4.62,426.034,0,372.703,0,326.618C0,297.047,0,270.461,0,256
	C0,175.082,5.151,94.164,7.584,60.462c0.665-9.234,17.176-16.324,26.433-16.324H486.81z"/>
<path style="fill:none; stroke: #555; stroke-width: 20px" d="M0,273.655c0,14.44,0,32.967,0,52.963v0.002h512v-0.002c0-19.997,0-38.524,0-52.963L0,273.655
	L0,273.655z"/>
<!-- <rect x="247.172" y="229.517" style="fill:none; stroke: #555; stroke-width: 20px" width="17.655" height="97.103"/> -->
<!-- <rect x="229.517" y="229.517" style="fill:none; stroke: #555; stroke-width: 20px" width="17.655" height="97.103"/>
<rect x="211.862" y="229.517" style="fill:none; stroke: #555; stroke-width: 20px" width="17.655" height="97.103"/>
<rect x="264.828" y="229.517" style="fill:none; stroke: #555; stroke-width: 20px" width="17.655" height="97.103"/>
<rect x="282.483" y="229.517" style="fill:none; stroke: #555; stroke-width: 20px" width="17.655" height="97.103"/> -->
<path style="fill:none; stroke: #555; stroke-width: 20px" d="M0,326.621c0,46.084,4.62,99.413,7.176,125.384c0.889,9.035,8.486,15.858,17.565,15.858h462.518
	c9.079,0,16.676-6.823,17.565-15.858C507.38,426.034,512,372.705,512,326.621H0z"/>
<circle style="fill:none; stroke: #555; stroke-width: 20px" cx="406.069" cy="211.862" r="26.483"/>
<circle style="fill:none; stroke: #555; stroke-width: 20px" cx="105.931" cy="211.862" r="26.483"/>
<path style="fill:none; stroke: #555; stroke-width: 20px" d="M467.862,70.621h-61.793c-4.875,0-8.828,3.953-8.828,8.828v61.793c0,4.875,3.953,8.828,8.828,8.828
	h61.793c4.875,0,8.828-3.953,8.828-8.828V79.448C476.69,74.573,472.737,70.621,467.862,70.621z"/>
<path style="fill:none; stroke: #555; stroke-width: 20px" d="M467.862,441.379H44.138c-4.875,0-8.828-3.953-8.828-8.828v-70.621c0-4.875,3.953-8.828,8.828-8.828
	h423.724c4.875,0,8.828,3.953,8.828,8.828v70.621C476.69,437.427,472.737,441.379,467.862,441.379z"/>
<!-- <circle style="fill:none; stroke: #555; stroke-width: 20px" cx="436.966" cy="110.345" r="39.724"/> -->
<!-- <circle style="fill:none; stroke: #555; stroke-width: 20px" cx="436.966" cy="110.345" r="22.069"/> -->
<!-- <path style="fill:none; stroke: #555; stroke-width: 20px" d="M450.207,88.276c-4.868,0-8.828,3.959-8.828,8.828s3.959,8.828,8.828,8.828 -->
<!-- 	c4.868,0,8.828-3.959,8.828-8.828S455.075,88.276,450.207,88.276z"/> -->
<!-- <path style="fill:none; stroke: #555; stroke-width: 20px" d="M467.862,441.379H44.138c-4.875,0-8.828-3.953-8.828-8.828v-17.655H476.69v17.655 -->
<!-- 	C476.69,437.427,472.737,441.379,467.862,441.379z"/> -->
<!-- <rect x="247.172" y="229.517" style="fill:none; stroke: #555; stroke-width: 20px" width="17.655" height="44.138"/>
<rect x="229.517" y="229.517" style="fill:none; stroke: #555; stroke-width: 20px" width="17.655" height="44.138"/>
<rect x="211.862" y="229.517" style="fill:none; stroke: #555; stroke-width: 20px" width="17.655" height="44.138"/>
<rect x="264.828" y="229.517" style="fill:none; stroke: #555; stroke-width: 20px" width="17.655" height="44.138"/>
<rect x="282.483" y="229.517" style="fill:none; stroke: #555; stroke-width: 20px" width="17.655" height="44.138"/> -->
<!-- <circle style="fill:none; stroke: #555; stroke-width: 20px" cx="256" cy="158.897" r="88.276"/> -->
<circle style="fill:none; stroke: #555; stroke-width: 20px" cx="256" cy="158.897" r="61.793"/>
<circle style="fill:none; stroke: #555; stroke-width: 20px" cx="256" cy="158.897" r="26.483"/>
<!-- <path style="fill:none; stroke: #555; stroke-width: 20px" d="M300.138,101.517c-9.737,0-17.655,7.918-17.655,17.655s7.918,17.655,17.655,17.655 -->
<!-- 	c9.737,0,17.655-7.918,17.655-17.655S309.875,101.517,300.138,101.517z"/> -->
<g>
<!-- 	<path style="fill:none; stroke: #555; stroke-width: 20px" d="M269.241,136.828c-7.303,0-13.241,5.939-13.241,13.241c0,7.303,5.939,13.241,13.241,13.241 -->
<!-- 		c7.303,0,13.241-5.939,13.241-13.241C282.483,142.766,276.544,136.828,269.241,136.828z"/> -->
<!-- 	<path style="fill:none; stroke: #555; stroke-width: 20px" d="M300.138,136.828c4.375,0,8.332-1.657,11.42-4.301c-5.169-10.867-13.329-19.898-23.529-26.138 -->
<!-- 		c-3.398,3.221-5.546,7.744-5.546,12.785C282.483,128.909,290.401,136.828,300.138,136.828z"/> -->
</g>
<g>
</g>
<g>
</g>
<g>
</g>
<g>
</g>
<g>
</g>
<g>
</g>
<g>
</g>
<g>
</g>
<g>
</g>
<g>
</g>
<g>
</g>
<g>
</g>
<g>
</g>
<g>
</g>
<g>
</g>
</svg>
